# Blender v2.92.0 OBJ File: 'field.blend'
# www.blender.org
mtllib field.mtl
o Cube.008
v -0.130000 0.020000 0.400000
v -0.130000 -0.020000 0.400000
v -0.170000 0.020000 0.400000
v -0.170000 -0.020000 0.400000
v -0.130000 0.020000 -0.400000
v -0.130000 -0.020000 -0.400000
v -0.170000 0.020000 -0.400000
v -0.170000 -0.020000 -0.400000
v 0.400000 0.020000 -0.170000
v 0.400000 -0.020000 -0.170000
v 0.400000 0.020000 -0.130000
v 0.400000 -0.020000 -0.130000
v -0.400000 0.020000 -0.170000
v -0.400000 -0.020000 -0.170000
v -0.400000 0.020000 -0.130000
v -0.400000 -0.020000 -0.130000
v 0.400000 0.020000 0.130000
v 0.400000 -0.020000 0.130000
v 0.400000 0.020000 0.170000
v 0.400000 -0.020000 0.170000
v -0.400000 0.020000 0.130000
v -0.400000 -0.020000 0.130000
v -0.400000 0.020000 0.170000
v -0.400000 -0.020000 0.170000
v 0.170000 0.020000 0.400000
v 0.170000 -0.020000 0.400000
v 0.130000 0.020000 0.400000
v 0.130000 -0.020000 0.400000
v 0.170000 0.020000 -0.400000
v 0.170000 -0.020000 -0.400000
v 0.130000 0.020000 -0.400000
v 0.130000 -0.020000 -0.400000
vt 0.625000 0.500000
vt 0.875000 0.500000
vt 0.875000 0.750000
vt 0.625000 0.750000
vt 0.375000 0.750000
vt 0.625000 1.000000
vt 0.375000 1.000000
vt 0.375000 0.000000
vt 0.625000 0.000000
vt 0.625000 0.250000
vt 0.375000 0.250000
vt 0.125000 0.500000
vt 0.375000 0.500000
vt 0.125000 0.750000
vt 0.625000 0.500000
vt 0.875000 0.500000
vt 0.875000 0.750000
vt 0.625000 0.750000
vt 0.375000 0.750000
vt 0.625000 1.000000
vt 0.375000 1.000000
vt 0.375000 0.000000
vt 0.625000 0.000000
vt 0.625000 0.250000
vt 0.375000 0.250000
vt 0.125000 0.500000
vt 0.375000 0.500000
vt 0.125000 0.750000
vt 0.625000 0.500000
vt 0.875000 0.500000
vt 0.875000 0.750000
vt 0.625000 0.750000
vt 0.375000 0.750000
vt 0.625000 1.000000
vt 0.375000 1.000000
vt 0.375000 0.000000
vt 0.625000 0.000000
vt 0.625000 0.250000
vt 0.375000 0.250000
vt 0.125000 0.500000
vt 0.375000 0.500000
vt 0.125000 0.750000
vt 0.625000 0.500000
vt 0.875000 0.500000
vt 0.875000 0.750000
vt 0.625000 0.750000
vt 0.375000 0.750000
vt 0.625000 1.000000
vt 0.375000 1.000000
vt 0.375000 0.000000
vt 0.625000 0.000000
vt 0.625000 0.250000
vt 0.375000 0.250000
vt 0.125000 0.500000
vt 0.375000 0.500000
vt 0.125000 0.750000
vn 0.0000 1.0000 0.0000
vn -1.0000 0.0000 -0.0000
vn 0.0000 0.0000 -1.0000
vn 0.0000 -1.0000 0.0000
vn 0.0000 0.0000 1.0000
vn 1.0000 0.0000 0.0000
usemtl Material
s off
f 1/1/1 5/2/1 7/3/1 3/4/1
f 4/5/2 3/4/2 7/6/2 8/7/2
f 8/8/3 7/9/3 5/10/3 6/11/3
f 6/12/4 2/13/4 4/5/4 8/14/4
f 2/13/5 1/1/5 3/4/5 4/5/5
f 6/11/6 5/10/6 1/1/6 2/13/6
f 9/15/1 13/16/1 15/17/1 11/18/1
f 12/19/5 11/18/5 15/20/5 16/21/5
f 16/22/2 15/23/2 13/24/2 14/25/2
f 14/26/4 10/27/4 12/19/4 16/28/4
f 10/27/6 9/15/6 11/18/6 12/19/6
f 14/25/3 13/24/3 9/15/3 10/27/3
f 17/29/1 21/30/1 23/31/1 19/32/1
f 20/33/5 19/32/5 23/34/5 24/35/5
f 24/36/2 23/37/2 21/38/2 22/39/2
f 22/40/4 18/41/4 20/33/4 24/42/4
f 18/41/6 17/29/6 19/32/6 20/33/6
f 22/39/3 21/38/3 17/29/3 18/41/3
f 25/43/1 29/44/1 31/45/1 27/46/1
f 28/47/2 27/46/2 31/48/2 32/49/2
f 32/50/3 31/51/3 29/52/3 30/53/3
f 30/54/4 26/55/4 28/47/4 32/56/4
f 26/55/5 25/43/5 27/46/5 28/47/5
f 30/53/6 29/52/6 25/43/6 26/55/6
