# Blender v2.93.4 OBJ File: 'fourInARow.blend'
# www.blender.org
mtllib fourInARowChip.mtl
o Chip_Plane.028
v 0.000000 -0.004900 0.050000
v 0.025000 -0.004900 0.025000
v 0.006470 -0.004900 0.049148
v 0.012500 -0.004900 0.046651
v 0.017678 -0.004900 0.042678
v 0.021651 -0.004900 0.037500
v 0.024148 -0.004900 0.031470
v -0.025000 -0.004900 0.025000
v 0.000000 -0.004900 0.050000
v -0.024148 -0.004900 0.031470
v -0.021651 -0.004900 0.037500
v -0.017678 -0.004900 0.042678
v -0.012500 -0.004900 0.046651
v -0.006470 -0.004900 0.049148
v 0.000000 -0.004900 0.000000
v 0.025000 -0.004900 0.025000
v 0.006470 -0.004900 0.000852
v 0.012500 -0.004900 0.003349
v 0.017678 -0.004900 0.007322
v 0.021651 -0.004900 0.012500
v 0.024148 -0.004900 0.018530
v 0.000000 -0.004900 0.000000
v -0.025000 -0.004900 0.025000
v -0.006470 -0.004900 0.000852
v -0.012500 -0.004900 0.003349
v -0.017678 -0.004900 0.007322
v -0.021651 -0.004900 0.012500
v -0.024148 -0.004900 0.018530
v 0.000000 0.004900 0.050000
v 0.025000 0.004900 0.025000
v 0.006470 0.004900 0.049148
v 0.012500 0.004900 0.046651
v 0.017678 0.004900 0.042678
v 0.021651 0.004900 0.037500
v 0.024148 0.004900 0.031470
v -0.025000 0.004900 0.025000
v 0.000000 0.004900 0.050000
v -0.024148 0.004900 0.031470
v -0.021651 0.004900 0.037500
v -0.017678 0.004900 0.042678
v -0.012500 0.004900 0.046651
v -0.006470 0.004900 0.049148
v 0.000000 0.004900 0.000000
v 0.025000 0.004900 0.025000
v 0.006470 0.004900 0.000852
v 0.012500 0.004900 0.003349
v 0.017678 0.004900 0.007322
v 0.021651 0.004900 0.012500
v 0.024148 0.004900 0.018530
v 0.000000 0.004900 0.000000
v -0.025000 0.004900 0.025000
v -0.006470 0.004900 0.000852
v -0.012500 0.004900 0.003349
v -0.017678 0.004900 0.007322
v -0.021651 0.004900 0.012500
v -0.024148 0.004900 0.018530
vt 0.000000 0.500000
vt 0.017037 0.370590
vt 0.066987 0.250000
vt 0.146447 0.146447
vt 0.250000 0.066987
vt 0.370590 0.017037
vt 0.500000 0.000000
vt 0.500000 0.000000
vt 0.629409 0.017037
vt 0.750000 0.066987
vt 0.853553 0.146447
vt 0.933013 0.250000
vt 0.982963 0.370590
vt 1.000000 0.500000
vt 1.000000 0.500000
vt 0.982963 0.629409
vt 0.933013 0.750000
vt 0.853553 0.853553
vt 0.750000 0.933013
vt 0.629409 0.982963
vt 0.500000 1.000000
vt 0.500000 1.000000
vt 0.370590 0.982963
vt 0.250000 0.933013
vt 0.146447 0.853553
vt 0.066987 0.750000
vt 0.017037 0.629409
vt 0.000000 0.500000
vt 0.000000 0.500000
vt 0.000000 0.500000
vt 0.017037 0.629409
vt 0.066987 0.750000
vt 0.146447 0.853553
vt 0.250000 0.933013
vt 0.370590 0.982963
vt 0.500000 1.000000
vt 0.500000 1.000000
vt 0.629409 0.982963
vt 0.750000 0.933013
vt 0.853553 0.853553
vt 0.933013 0.750000
vt 0.982963 0.629409
vt 1.000000 0.500000
vt 1.000000 0.500000
vt 0.982963 0.370590
vt 0.933013 0.250000
vt 0.853553 0.146447
vt 0.750000 0.066987
vt 0.629409 0.017037
vt 0.500000 0.000000
vt 0.500000 0.000000
vt 0.370590 0.017037
vt 0.250000 0.066987
vt 0.146447 0.146447
vt 0.066987 0.250000
vt 0.017037 0.370590
vn -0.0000 -1.0000 -0.0000
vn 0.0000 1.0000 0.0000
vn 0.0000 0.0000 1.0000
vn 0.9914 0.0000 0.1305
vn 0.9239 0.0000 0.3827
vn 0.7934 0.0000 0.6088
vn 0.6088 0.0000 0.7934
vn 0.3827 0.0000 0.9239
vn 0.1305 0.0000 0.9914
vn -0.1305 0.0000 0.9914
vn -0.3827 0.0000 0.9239
vn -0.6088 0.0000 0.7934
vn -0.7934 0.0000 0.6088
vn -0.9239 0.0000 0.3827
vn -0.9914 0.0000 0.1305
vn -0.9914 0.0000 -0.1305
vn -0.9239 0.0000 -0.3827
vn -0.7934 0.0000 -0.6088
vn -0.6088 0.0000 -0.7934
vn -0.3827 0.0000 -0.9239
vn -0.1305 0.0000 -0.9914
vn 0.1305 0.0000 -0.9914
vn 0.3827 0.0000 -0.9239
vn 0.6088 0.0000 -0.7934
vn 0.7934 0.0000 -0.6088
vn 0.9239 0.0000 -0.3827
vn 0.9914 0.0000 -0.1305
usemtl None
s off
f 2/1/1 7/2/1 6/3/1 5/4/1 4/5/1 3/6/1 1/7/1 9/8/1 14/9/1 13/10/1 12/11/1 11/12/1 10/13/1 8/14/1 23/15/1 28/16/1 27/17/1 26/18/1 25/19/1 24/20/1 22/21/1 15/22/1 17/23/1 18/24/1 19/25/1 20/26/1 21/27/1 16/28/1
f 30/29/2 44/30/2 49/31/2 48/32/2 47/33/2 46/34/2 45/35/2 43/36/2 50/37/2 52/38/2 53/39/2 54/40/2 55/41/2 56/42/2 51/43/2 36/44/2 38/45/2 39/46/2 40/47/2 41/48/2 42/49/2 37/50/2 29/51/2 31/52/2 32/53/2 33/54/2 34/55/2 35/56/2
f 2/1/3 16/28/3 44/30/3 30/29/3
f 7/2/4 2/1/4 30/29/4 35/56/4
f 6/3/5 7/2/5 35/56/5 34/55/5
f 5/4/6 6/3/6 34/55/6 33/54/6
f 4/5/7 5/4/7 33/54/7 32/53/7
f 3/6/8 4/5/8 32/53/8 31/52/8
f 1/7/9 3/6/9 31/52/9 29/51/9
f 9/8/3 1/7/3 29/51/3 37/50/3
f 14/9/10 9/8/10 37/50/10 42/49/10
f 13/10/11 14/9/11 42/49/11 41/48/11
f 12/11/12 13/10/12 41/48/12 40/47/12
f 11/12/13 12/11/13 40/47/13 39/46/13
f 10/13/14 11/12/14 39/46/14 38/45/14
f 8/14/15 10/13/15 38/45/15 36/44/15
f 23/15/3 8/14/3 36/44/3 51/43/3
f 28/16/16 23/15/16 51/43/16 56/42/16
f 27/17/17 28/16/17 56/42/17 55/41/17
f 26/18/18 27/17/18 55/41/18 54/40/18
f 25/19/19 26/18/19 54/40/19 53/39/19
f 24/20/20 25/19/20 53/39/20 52/38/20
f 22/21/21 24/20/21 52/38/21 50/37/21
f 15/22/3 22/21/3 50/37/3 43/36/3
f 17/23/22 15/22/22 43/36/22 45/35/22
f 18/24/23 17/23/23 45/35/23 46/34/23
f 19/25/24 18/24/24 46/34/24 47/33/24
f 20/26/25 19/25/25 47/33/25 48/32/25
f 21/27/26 20/26/26 48/32/26 49/31/26
f 16/28/27 21/27/27 49/31/27 44/30/27
